# xmcd
#
# Track frame offsets:
#	180
#	20016
#	26194
#	42424
#	58921
#	71493
#	88822
#	101500
#	111415
#	120676
#	138288
#	152894
#	166643
#
# Disc length: 2440 seconds
#
# Revision: 1
# Processed by: cddbd v1.5.2PL0 Copyright (c) Steve Scherf et al.
# Submitted via: audiograbber 1.83.01
#
DISCID=b509860d
DTITLE=Basement App - A View From The Basement
DYEAR=1900
DGENRE=Blues
TTITLE0=Things Are Never What They Seemed
TTITLE1=Yummer Man - Intro
TTITLE2=Yummer Man
TTITLE3=All Your Love
TTITLE4=Mariano
TTITLE5=When I See You Comin
TTITLE6=All What You Do
TTITLE7=Mary Jane
TTITLE8=It Must Be Love
TTITLE9=Bye Bye Baby
TTITLE10=That's All
TTITLE11=When You Got Me Babe
TTITLE12=I'm No Kind Of Dancer
EXTD=
EXTT0=
EXTT1=
EXTT2=
EXTT3=
EXTT4=
EXTT5=
EXTT6=
EXTT7=
EXTT8=
EXTT9=
EXTT10=
EXTT11=
EXTT12=
PLAYORDER=
